<svg id="visual" viewBox="0 0 900 675" width="900" height="675" xmlns="http://www.w3.org/2000/svg" xmlns:xlink="http://www.w3.org/1999/xlink" version="1.1"><rect x="0" y="0" width="900" height="675" fill="#303030"></rect><defs><linearGradient id="grad1_0" x1="25%" y1="0%" x2="100%" y2="100%"><stop offset="23.333333333333336%" stop-color="#4aae87" stop-opacity="1"></stop><stop offset="76.66666666666666%" stop-color="#4aae87" stop-opacity="1"></stop></linearGradient></defs><defs><linearGradient id="grad1_1" x1="25%" y1="0%" x2="100%" y2="100%"><stop offset="23.333333333333336%" stop-color="#4aae87" stop-opacity="1"></stop><stop offset="76.66666666666666%" stop-color="#468168" stop-opacity="1"></stop></linearGradient></defs><defs><linearGradient id="grad1_2" x1="25%" y1="0%" x2="100%" y2="100%"><stop offset="23.333333333333336%" stop-color="#3d574b" stop-opacity="1"></stop><stop offset="76.66666666666666%" stop-color="#468168" stop-opacity="1"></stop></linearGradient></defs><defs><linearGradient id="grad1_3" x1="25%" y1="0%" x2="100%" y2="100%"><stop offset="23.333333333333336%" stop-color="#3d574b" stop-opacity="1"></stop><stop offset="76.66666666666666%" stop-color="#303030" stop-opacity="1"></stop></linearGradient></defs><defs><linearGradient id="grad2_0" x1="0%" y1="0%" x2="75%" y2="100%"><stop offset="23.333333333333336%" stop-color="#4aae87" stop-opacity="1"></stop><stop offset="76.66666666666666%" stop-color="#4aae87" stop-opacity="1"></stop></linearGradient></defs><defs><linearGradient id="grad2_1" x1="0%" y1="0%" x2="75%" y2="100%"><stop offset="23.333333333333336%" stop-color="#468168" stop-opacity="1"></stop><stop offset="76.66666666666666%" stop-color="#4aae87" stop-opacity="1"></stop></linearGradient></defs><defs><linearGradient id="grad2_2" x1="0%" y1="0%" x2="75%" y2="100%"><stop offset="23.333333333333336%" stop-color="#468168" stop-opacity="1"></stop><stop offset="76.66666666666666%" stop-color="#3d574b" stop-opacity="1"></stop></linearGradient></defs><defs><linearGradient id="grad2_3" x1="0%" y1="0%" x2="75%" y2="100%"><stop offset="23.333333333333336%" stop-color="#303030" stop-opacity="1"></stop><stop offset="76.66666666666666%" stop-color="#3d574b" stop-opacity="1"></stop></linearGradient></defs><g transform="translate(900, 0)"><path d="M0 478.1C-47.9 466.2 -95.8 454.3 -143.1 440.3C-190.4 426.4 -237.2 410.3 -279.2 384.3C-321.2 358.3 -358.6 322.3 -386.8 281C-415.1 239.8 -434.2 193.3 -447.9 145.5C-461.7 97.8 -469.9 48.9 -478.1 0L0 0Z" fill="#37433d"></path><path d="M0 358.6C-35.9 349.7 -71.8 340.7 -107.3 330.3C-142.8 319.8 -177.9 307.7 -209.4 288.2C-240.9 268.7 -268.9 241.7 -290.1 210.8C-311.3 179.8 -325.7 144.9 -336 109.2C-346.2 73.4 -352.4 36.7 -358.6 0L0 0Z" fill="#426c5a"></path><path d="M0 239.1C-23.9 233.1 -47.9 227.2 -71.5 220.2C-95.2 213.2 -118.6 205.2 -139.6 192.1C-160.6 179.1 -179.3 161.1 -193.4 140.5C-207.5 119.9 -217.1 96.6 -224 72.8C-230.8 48.9 -234.9 24.5 -239.1 0L0 0Z" fill="#489778"></path><path d="M0 119.5C-12 116.6 -23.9 113.6 -35.8 110.1C-47.6 106.6 -59.3 102.6 -69.8 96.1C-80.3 89.6 -89.6 80.6 -96.7 70.3C-103.8 59.9 -108.6 48.3 -112 36.4C-115.4 24.5 -117.5 12.2 -119.5 0L0 0Z" fill="#4aae87"></path></g><g transform="translate(0, 675)"><path d="M0 -478.1C47.2 -466.2 94.4 -454.3 143.7 -442.2C193 -430.2 244.5 -418 281 -386.8C317.6 -355.6 339.3 -305.4 359.2 -261C379.1 -216.5 397.1 -177.9 416.6 -135.3C436.1 -92.8 457.1 -46.4 478.1 0L0 0Z" fill="#37433d"></path><path d="M0 -358.6C35.4 -349.7 70.8 -340.7 107.8 -331.7C144.8 -322.6 183.3 -313.5 210.8 -290.1C238.2 -266.7 254.5 -229.1 269.4 -195.7C284.3 -162.4 297.8 -133.4 312.4 -101.5C327.1 -69.6 342.8 -34.8 358.6 0L0 0Z" fill="#426c5a"></path><path d="M0 -239.1C23.6 -233.1 47.2 -227.1 71.8 -221.1C96.5 -215.1 122.2 -209 140.5 -193.4C158.8 -177.8 169.7 -152.7 179.6 -130.5C189.5 -108.3 198.5 -88.9 208.3 -67.7C218 -46.4 228.5 -23.2 239.1 0L0 0Z" fill="#489778"></path><path d="M0 -119.5C11.8 -116.6 23.6 -113.6 35.9 -110.6C48.3 -107.5 61.1 -104.5 70.3 -96.7C79.4 -88.9 84.8 -76.4 89.8 -65.2C94.8 -54.1 99.3 -44.5 104.1 -33.8C109 -23.2 114.3 -11.6 119.5 0L0 0Z" fill="#4aae87"></path></g></svg>