<svg id="visual" viewBox="0 0 900 600" width="900" height="600" xmlns="http://www.w3.org/2000/svg" xmlns:xlink="http://www.w3.org/1999/xlink" version="1.1"><rect x="0" y="0" width="900" height="600" fill="#004a87"></rect><defs><linearGradient id="grad1_0" x1="33.3%" y1="100%" x2="100%" y2="0%"><stop offset="20%" stop-color="#009473" stop-opacity="1"></stop><stop offset="80%" stop-color="#009473" stop-opacity="1"></stop></linearGradient></defs><defs><linearGradient id="grad1_1" x1="33.3%" y1="100%" x2="100%" y2="0%"><stop offset="20%" stop-color="#009473" stop-opacity="1"></stop><stop offset="80%" stop-color="#00808b" stop-opacity="1"></stop></linearGradient></defs><defs><linearGradient id="grad1_2" x1="33.3%" y1="100%" x2="100%" y2="0%"><stop offset="20%" stop-color="#006795" stop-opacity="1"></stop><stop offset="80%" stop-color="#00808b" stop-opacity="1"></stop></linearGradient></defs><defs><linearGradient id="grad1_3" x1="33.3%" y1="100%" x2="100%" y2="0%"><stop offset="20%" stop-color="#006795" stop-opacity="1"></stop><stop offset="80%" stop-color="#004a87" stop-opacity="1"></stop></linearGradient></defs><defs><linearGradient id="grad2_0" x1="0%" y1="100%" x2="66.7%" y2="0%"><stop offset="20%" stop-color="#009473" stop-opacity="1"></stop><stop offset="80%" stop-color="#009473" stop-opacity="1"></stop></linearGradient></defs><defs><linearGradient id="grad2_1" x1="0%" y1="100%" x2="66.7%" y2="0%"><stop offset="20%" stop-color="#00808b" stop-opacity="1"></stop><stop offset="80%" stop-color="#009473" stop-opacity="1"></stop></linearGradient></defs><defs><linearGradient id="grad2_2" x1="0%" y1="100%" x2="66.7%" y2="0%"><stop offset="20%" stop-color="#00808b" stop-opacity="1"></stop><stop offset="80%" stop-color="#006795" stop-opacity="1"></stop></linearGradient></defs><defs><linearGradient id="grad2_3" x1="0%" y1="100%" x2="66.7%" y2="0%"><stop offset="20%" stop-color="#004a87" stop-opacity="1"></stop><stop offset="80%" stop-color="#006795" stop-opacity="1"></stop></linearGradient></defs><g transform="translate(900, 600)"><path d="M-540.8 0C-503.5 -50.4 -466.2 -100.8 -433.7 -140.9C-401.2 -181 -373.4 -210.9 -357.6 -259.8C-341.7 -308.7 -337.7 -376.5 -308 -423.9C-278.3 -471.3 -222.8 -498.3 -167.1 -514.4C-111.5 -530.4 -55.8 -535.6 0 -540.8L0 0Z" fill="#005991"></path><path d="M-405.6 0C-377.6 -37.8 -349.7 -75.6 -325.3 -105.7C-300.9 -135.8 -280.1 -158.2 -268.2 -194.9C-256.3 -231.5 -253.3 -282.4 -231 -317.9C-208.7 -353.5 -167.1 -373.7 -125.3 -385.8C-83.6 -397.8 -41.8 -401.7 0 -405.6L0 0Z" fill="#007493"></path><path d="M-270.4 0C-251.8 -25.2 -233.1 -50.4 -216.8 -70.5C-200.6 -90.5 -186.7 -105.5 -178.8 -129.9C-170.9 -154.3 -168.9 -188.3 -154 -212C-139.1 -235.7 -111.4 -249.1 -83.6 -257.2C-55.8 -265.2 -27.9 -267.8 0 -270.4L0 0Z" fill="#008a80"></path><path d="M-135.2 0C-125.9 -12.6 -116.6 -25.2 -108.4 -35.2C-100.3 -45.3 -93.4 -52.7 -89.4 -65C-85.4 -77.2 -84.4 -94.1 -77 -106C-69.6 -117.8 -55.7 -124.6 -41.8 -128.6C-27.9 -132.6 -13.9 -133.9 0 -135.2L0 0Z" fill="#009473"></path></g><g transform="translate(0, 0)"><path d="M540.8 0C537.2 57 533.6 114 514.4 167.1C495.1 220.3 460.3 269.7 412.6 299.8C364.9 329.9 304.4 340.7 256.9 353.5C209.3 366.4 174.8 381.2 134.1 412.8C93.5 444.3 46.7 492.6 0 540.8L0 0Z" fill="#005991"></path><path d="M405.6 0C402.9 42.7 400.2 85.5 385.8 125.3C371.3 165.2 345.2 202.3 309.4 224.8C273.7 247.4 228.3 255.5 192.6 265.2C157 274.8 131.1 285.9 100.6 309.6C70.1 333.2 35 369.4 0 405.6L0 0Z" fill="#007493"></path><path d="M270.4 0C268.6 28.5 266.8 57 257.2 83.6C247.6 110.1 230.1 134.8 206.3 149.9C182.5 164.9 152.2 170.4 128.4 176.8C104.7 183.2 87.4 190.6 67.1 206.4C46.7 222.2 23.4 246.3 0 270.4L0 0Z" fill="#008a80"></path><path d="M135.2 0C134.3 14.2 133.4 28.5 128.6 41.8C123.8 55.1 115.1 67.4 103.1 74.9C91.2 82.5 76.1 85.2 64.2 88.4C52.3 91.6 43.7 95.3 33.5 103.2C23.4 111.1 11.7 123.1 0 135.2L0 0Z" fill="#009473"></path></g></svg>